<?xml version="1.0" encoding="utf-8"?>
<!-- Generator: Adobe Illustrator 25.2.3, SVG Export Plug-In . SVG Version: 6.00 Build 0)  -->
<svg version="1.1" id="Layer_1" xmlns="http://www.w3.org/2000/svg" xmlns:xlink="http://www.w3.org/1999/xlink" x="0px" y="0px"
	 viewBox="0 0 1920 1080" style="enable-background:new 0 0 1920 1080;" xml:space="preserve">
<style type="text/css">
	.st0{fill:none;}
	.st1{fill:none;stroke:#CCCCCC;stroke-width:4;stroke-miterlimit:10;}
	.st2{fill:url(#New_Pattern);}
</style>
<pattern  width="359.66" height="450" patternUnits="userSpaceOnUse" id="New_Pattern" viewBox="1129.4 -1489.91 359.66 450" style="overflow:visible;">
	<g>
		<rect x="1129.4" y="-1489.91" class="st0" width="359.66" height="450"/>
		<path class="st1" d="M1260.21-1178.41c24.52,24.52-2.35,51.39,22.17,75.91c24.52,24.52,51.39-2.35,75.91,22.17
			c24.52,24.52-2.35,51.39,22.17,75.91c24.52,24.52,51.39-2.35,75.91,22.17c24.52,24.52-2.35,51.39,22.17,75.91
			c24.52,24.52,51.39-2.35,75.91,22.17c24.52,24.52-2.35,51.39,22.17,75.91c24.52,24.52,51.39-2.35,75.91,22.17
			c24.52,24.52-2.35,51.39,22.17,75.91c24.52,24.52,51.39-2.35,75.91,22.17c24.52,24.52-2.35,51.39,22.17,75.91
			c24.52,24.52,51.39-2.35,75.91,22.17c24.52,24.52-2.35,51.39,22.17,75.91c24.52,24.52,51.39-2.35,75.91,22.17
			c24.52,24.52-2.35,51.39,22.17,75.91c24.52,24.52,51.39-2.35,75.91,22.17c24.52,24.52-2.35,51.39,22.17,75.91
			c24.52,24.52,51.39-2.35,75.91,22.17c24.52,24.52-2.35,51.39,22.17,75.91c24.52,24.52,51.39-2.35,75.91,22.17
			c24.52,24.52-2.35,51.39,22.17,75.91c24.52,24.52,51.39-2.35,75.91,22.17c24.52,24.52-2.35,51.4,22.18,75.92
			c24.53,24.52,51.4-2.35,75.92,22.18"/>
		<path class="st1" d="M900.56-1178.41c24.52,24.52-2.35,51.39,22.17,75.91c24.52,24.52,51.39-2.35,75.91,22.17
			c24.52,24.52-2.35,51.39,22.17,75.91c24.52,24.52,51.39-2.35,75.91,22.17c24.52,24.52-2.35,51.39,22.17,75.91
			c24.52,24.52,51.39-2.35,75.91,22.17c24.52,24.52-2.35,51.39,22.17,75.91c24.52,24.52,51.39-2.35,75.91,22.17
			c24.52,24.52-2.35,51.39,22.17,75.91c24.52,24.52,51.39-2.35,75.91,22.17c24.52,24.52-2.35,51.39,22.17,75.91
			c24.52,24.52,51.39-2.35,75.91,22.17c24.52,24.52-2.35,51.39,22.17,75.91c24.52,24.52,51.39-2.35,75.91,22.17
			c24.52,24.52-2.35,51.39,22.17,75.91c24.52,24.52,51.39-2.35,75.91,22.17c24.52,24.52-2.35,51.39,22.17,75.91
			c24.52,24.52,51.39-2.35,75.91,22.17c24.52,24.52-2.35,51.39,22.17,75.91c24.52,24.52,51.39-2.35,75.91,22.17
			c24.52,24.52-2.35,51.39,22.17,75.91c24.52,24.52,51.39-2.35,75.91,22.17c24.52,24.52-2.35,51.4,22.18,75.92
			c24.53,24.52,51.4-2.35,75.92,22.18"/>
		<path class="st1" d="M540.9-1178.41c24.52,24.52-2.35,51.39,22.17,75.91c24.52,24.52,51.39-2.35,75.91,22.17
			c24.52,24.52-2.35,51.39,22.17,75.91c24.52,24.52,51.39-2.35,75.91,22.17c24.52,24.52-2.35,51.39,22.17,75.91
			c24.52,24.52,51.39-2.35,75.91,22.17c24.52,24.52-2.35,51.39,22.17,75.91c24.52,24.52,51.39-2.35,75.91,22.17
			c24.52,24.52-2.35,51.39,22.17,75.91c24.52,24.52,51.39-2.35,75.91,22.17c24.52,24.52-2.35,51.39,22.17,75.91
			c24.52,24.52,51.39-2.35,75.91,22.17c24.52,24.52-2.35,51.39,22.17,75.91c24.52,24.52,51.39-2.35,75.91,22.17
			c24.52,24.52-2.35,51.39,22.17,75.91c24.52,24.52,51.39-2.35,75.91,22.17c24.52,24.52-2.35,51.39,22.17,75.91
			c24.52,24.52,51.39-2.35,75.91,22.17c24.52,24.52-2.35,51.39,22.17,75.91c24.52,24.52,51.39-2.35,75.91,22.17
			c24.52,24.52-2.35,51.39,22.17,75.91c24.52,24.52,51.39-2.35,75.91,22.17c24.53,24.52-2.35,51.4,22.18,75.92
			c24.52,24.52,51.4-2.35,75.92,22.18"/>
		<path class="st1" d="M181.24-1178.41c24.52,24.52-2.35,51.39,22.17,75.91c24.52,24.52,51.39-2.35,75.91,22.17
			c24.52,24.52-2.35,51.39,22.17,75.91c24.52,24.52,51.39-2.35,75.91,22.17c24.52,24.52-2.35,51.39,22.17,75.91
			c24.52,24.52,51.39-2.35,75.91,22.17c24.52,24.52-2.35,51.39,22.17,75.91c24.52,24.52,51.39-2.35,75.91,22.17
			c24.52,24.52-2.35,51.39,22.17,75.91c24.52,24.52,51.39-2.35,75.91,22.17c24.52,24.52-2.35,51.39,22.17,75.91
			c24.52,24.52,51.39-2.35,75.91,22.17c24.52,24.52-2.35,51.39,22.17,75.91c24.52,24.52,51.39-2.35,75.91,22.17
			c24.52,24.52-2.35,51.39,22.17,75.91c24.52,24.52,51.39-2.35,75.91,22.17c24.52,24.52-2.35,51.39,22.17,75.91
			c24.52,24.52,51.39-2.35,75.91,22.17c24.52,24.52-2.35,51.39,22.17,75.91c24.52,24.52,51.39-2.35,75.91,22.17
			c24.52,24.52-2.35,51.39,22.17,75.91c24.52,24.52,51.39-2.35,75.91,22.17c24.52,24.52-2.35,51.4,22.18,75.92
			c24.53,24.52,51.4-2.35,75.92,22.18"/>
		<path class="st1" d="M1440.04-1403.41c24.52,24.52-2.35,51.39,22.17,75.91c24.52,24.52,51.39-2.35,75.91,22.17
			c24.52,24.52-2.35,51.39,22.17,75.91c24.52,24.52,51.39-2.35,75.91,22.17c24.52,24.52-2.35,51.39,22.17,75.91
			c24.52,24.52,51.39-2.35,75.91,22.17c24.52,24.52-2.35,51.39,22.17,75.91c24.52,24.52,51.39-2.35,75.91,22.17
			c24.52,24.52-2.35,51.39,22.17,75.91c24.52,24.52,51.39-2.35,75.91,22.17c24.52,24.52-2.35,51.39,22.17,75.91
			c24.52,24.52,51.39-2.35,75.91,22.17c24.52,24.52-2.35,51.39,22.17,75.91c24.52,24.52,51.39-2.35,75.91,22.17
			c24.52,24.52-2.35,51.39,22.17,75.91c24.52,24.52,51.39-2.35,75.91,22.17c24.52,24.52-2.35,51.39,22.17,75.91
			c24.52,24.52,51.39-2.35,75.91,22.17c24.52,24.52-2.35,51.39,22.17,75.91c24.52,24.52,51.39-2.35,75.91,22.17
			c24.52,24.52-2.35,51.39,22.17,75.91c24.52,24.52,51.39-2.35,75.91,22.17c24.52,24.52-2.35,51.39,22.18,75.92
			c24.53,24.52,51.4-2.35,75.92,22.18"/>
		<path class="st1" d="M1260.21-1628.41c24.52,24.52-2.35,51.39,22.17,75.91c24.52,24.52,51.39-2.35,75.91,22.17
			c24.52,24.52-2.35,51.39,22.17,75.91c24.52,24.52,51.39-2.35,75.91,22.17c24.52,24.52-2.35,51.39,22.17,75.91
			c24.52,24.52,51.39-2.35,75.91,22.17c24.52,24.52-2.35,51.39,22.17,75.91c24.52,24.52,51.39-2.35,75.91,22.17
			c24.52,24.52-2.35,51.39,22.17,75.91c24.52,24.52,51.39-2.35,75.91,22.17c24.52,24.52-2.35,51.39,22.17,75.91
			c24.52,24.52,51.39-2.35,75.91,22.17c24.52,24.52-2.35,51.39,22.17,75.91c24.52,24.52,51.39-2.35,75.91,22.17
			c24.52,24.52-2.35,51.39,22.17,75.91c24.52,24.52,51.39-2.35,75.91,22.17c24.52,24.52-2.35,51.39,22.17,75.91
			c24.52,24.52,51.39-2.35,75.91,22.17c24.52,24.52-2.35,51.39,22.17,75.91c24.52,24.52,51.39-2.35,75.91,22.17
			c24.52,24.52-2.35,51.39,22.17,75.91c24.52,24.52,51.39-2.35,75.91,22.17c24.52,24.52-2.35,51.4,22.18,75.92
			c24.53,24.52,51.4-2.35,75.92,22.18"/>
		<path class="st1" d="M1080.38-1403.41c24.52,24.52-2.35,51.39,22.17,75.91c24.52,24.52,51.39-2.35,75.91,22.17
			c24.52,24.52-2.35,51.39,22.17,75.91c24.52,24.52,51.39-2.35,75.91,22.17c24.52,24.52-2.35,51.39,22.17,75.91
			c24.52,24.52,51.39-2.35,75.91,22.17c24.52,24.52-2.35,51.39,22.17,75.91c24.52,24.52,51.39-2.35,75.91,22.17
			c24.52,24.52-2.35,51.39,22.17,75.91c24.52,24.52,51.39-2.35,75.91,22.17c24.52,24.52-2.35,51.39,22.17,75.91
			c24.52,24.52,51.39-2.35,75.91,22.17c24.52,24.52-2.35,51.39,22.17,75.91c24.52,24.52,51.39-2.35,75.91,22.17
			c24.52,24.52-2.35,51.39,22.17,75.91c24.52,24.52,51.39-2.35,75.91,22.17c24.52,24.52-2.35,51.39,22.17,75.91
			c24.52,24.52,51.39-2.35,75.91,22.17c24.52,24.52-2.35,51.39,22.17,75.91c24.52,24.52,51.39-2.35,75.91,22.17
			c24.52,24.52-2.35,51.39,22.17,75.91c24.52,24.52,51.39-2.35,75.91,22.17c24.52,24.52-2.35,51.39,22.18,75.92
			s51.4-2.35,75.92,22.18"/>
		<path class="st1" d="M900.56-1628.41c24.52,24.52-2.35,51.39,22.17,75.91c24.52,24.52,51.39-2.35,75.91,22.17
			c24.52,24.52-2.35,51.39,22.17,75.91c24.52,24.52,51.39-2.35,75.91,22.17c24.52,24.52-2.35,51.39,22.17,75.91
			c24.52,24.52,51.39-2.35,75.91,22.17c24.52,24.52-2.35,51.39,22.17,75.91c24.52,24.52,51.39-2.35,75.91,22.17
			c24.52,24.52-2.35,51.39,22.17,75.91c24.52,24.52,51.39-2.35,75.91,22.17c24.52,24.52-2.35,51.39,22.17,75.91
			c24.52,24.52,51.39-2.35,75.91,22.17c24.52,24.52-2.35,51.39,22.17,75.91c24.52,24.52,51.39-2.35,75.91,22.17
			c24.52,24.52-2.35,51.39,22.17,75.91c24.52,24.52,51.39-2.35,75.91,22.17c24.52,24.52-2.35,51.39,22.17,75.91
			c24.52,24.52,51.39-2.35,75.91,22.17c24.52,24.52-2.35,51.39,22.17,75.91c24.52,24.52,51.39-2.35,75.91,22.17
			c24.52,24.52-2.35,51.39,22.17,75.91c24.52,24.52,51.39-2.35,75.91,22.17c24.52,24.52-2.35,51.4,22.18,75.92
			c24.53,24.52,51.4-2.35,75.92,22.18"/>
		<path class="st1" d="M720.73-1403.41c24.52,24.52-2.35,51.39,22.17,75.91c24.52,24.52,51.39-2.35,75.91,22.17
			c24.52,24.52-2.35,51.39,22.17,75.91c24.52,24.52,51.39-2.35,75.91,22.17c24.52,24.52-2.35,51.39,22.17,75.91
			c24.52,24.52,51.39-2.35,75.91,22.17c24.52,24.52-2.35,51.39,22.17,75.91c24.52,24.52,51.39-2.35,75.91,22.17
			c24.52,24.52-2.35,51.39,22.17,75.91c24.52,24.52,51.39-2.35,75.91,22.17c24.52,24.52-2.35,51.39,22.17,75.91
			c24.52,24.52,51.39-2.35,75.91,22.17c24.52,24.52-2.35,51.39,22.17,75.91c24.52,24.52,51.39-2.35,75.91,22.17
			c24.52,24.52-2.35,51.39,22.17,75.91c24.52,24.52,51.39-2.35,75.91,22.17c24.52,24.52-2.35,51.39,22.17,75.91
			c24.52,24.52,51.39-2.35,75.91,22.17c24.52,24.52-2.35,51.39,22.17,75.91c24.52,24.52,51.39-2.35,75.91,22.17
			c24.52,24.52-2.35,51.39,22.17,75.91c24.52,24.52,51.39-2.35,75.91,22.17c24.52,24.52-2.35,51.39,22.18,75.92
			s51.4-2.35,75.92,22.18"/>
		<path class="st1" d="M540.9-1628.41c24.52,24.52-2.35,51.39,22.17,75.91c24.52,24.52,51.39-2.35,75.91,22.17
			c24.52,24.52-2.35,51.39,22.17,75.91c24.52,24.52,51.39-2.35,75.91,22.17c24.52,24.52-2.35,51.39,22.17,75.91
			c24.52,24.52,51.39-2.35,75.91,22.17c24.52,24.52-2.35,51.39,22.17,75.91c24.52,24.52,51.39-2.35,75.91,22.17
			c24.52,24.52-2.35,51.39,22.17,75.91c24.52,24.52,51.39-2.35,75.91,22.17c24.52,24.52-2.35,51.39,22.17,75.91
			c24.52,24.52,51.39-2.35,75.91,22.17c24.52,24.52-2.35,51.39,22.17,75.91c24.52,24.52,51.39-2.35,75.91,22.17
			c24.52,24.52-2.35,51.39,22.17,75.91c24.52,24.52,51.39-2.35,75.91,22.17c24.52,24.52-2.35,51.39,22.17,75.91
			c24.52,24.52,51.39-2.35,75.91,22.17c24.52,24.52-2.35,51.39,22.17,75.91c24.52,24.52,51.39-2.35,75.91,22.17
			c24.52,24.52-2.35,51.39,22.17,75.91c24.52,24.52,51.39-2.35,75.91,22.17c24.53,24.52-2.35,51.4,22.18,75.92
			c24.52,24.52,51.4-2.35,75.92,22.18"/>
		<path class="st1" d="M361.07-1403.41c24.52,24.52-2.35,51.39,22.17,75.91c24.52,24.52,51.39-2.35,75.91,22.17
			c24.52,24.52-2.35,51.39,22.17,75.91c24.52,24.52,51.39-2.35,75.91,22.17c24.52,24.52-2.35,51.39,22.17,75.91
			c24.52,24.52,51.39-2.35,75.91,22.17c24.52,24.52-2.35,51.39,22.17,75.91c24.52,24.52,51.39-2.35,75.91,22.17
			c24.52,24.52-2.35,51.39,22.17,75.91c24.52,24.52,51.39-2.35,75.91,22.17c24.52,24.52-2.35,51.39,22.17,75.91
			c24.52,24.52,51.39-2.35,75.91,22.17c24.52,24.52-2.35,51.39,22.17,75.91c24.52,24.52,51.39-2.35,75.91,22.17
			c24.52,24.52-2.35,51.39,22.17,75.91c24.52,24.52,51.39-2.35,75.91,22.17c24.52,24.52-2.35,51.39,22.17,75.91
			c24.52,24.52,51.39-2.35,75.91,22.17c24.52,24.52-2.35,51.39,22.17,75.91c24.52,24.52,51.39-2.35,75.91,22.17
			c24.52,24.52-2.35,51.39,22.17,75.91c24.52,24.52,51.39-2.35,75.91,22.17c24.53,24.52-2.35,51.39,22.18,75.92
			c24.53,24.52,51.4-2.35,75.92,22.18"/>
		<path class="st1" d="M181.24-1628.41c24.52,24.52-2.35,51.39,22.17,75.91c24.52,24.52,51.39-2.35,75.91,22.17
			c24.52,24.52-2.35,51.39,22.17,75.91c24.52,24.52,51.39-2.35,75.91,22.17c24.52,24.52-2.35,51.39,22.17,75.91
			c24.52,24.52,51.39-2.35,75.91,22.17c24.52,24.52-2.35,51.39,22.17,75.91c24.52,24.52,51.39-2.35,75.91,22.17
			c24.52,24.52-2.35,51.39,22.17,75.91c24.52,24.52,51.39-2.35,75.91,22.17c24.52,24.52-2.35,51.39,22.17,75.91
			c24.52,24.52,51.39-2.35,75.91,22.17c24.52,24.52-2.35,51.39,22.17,75.91c24.52,24.52,51.39-2.35,75.91,22.17
			c24.52,24.52-2.35,51.39,22.17,75.91c24.52,24.52,51.39-2.35,75.91,22.17c24.52,24.52-2.35,51.39,22.17,75.91
			c24.52,24.52,51.39-2.35,75.91,22.17c24.52,24.52-2.35,51.39,22.17,75.91c24.52,24.52,51.39-2.35,75.91,22.17
			c24.52,24.52-2.35,51.39,22.17,75.91c24.52,24.52,51.39-2.35,75.91,22.17c24.52,24.52-2.35,51.4,22.18,75.92
			c24.53,24.52,51.4-2.35,75.92,22.18"/>
		<path class="st1" d="M1.41-1403.41c24.52,24.52-2.35,51.39,22.17,75.91c24.52,24.52,51.39-2.35,75.91,22.17
			c24.52,24.52-2.35,51.39,22.17,75.91c24.52,24.52,51.39-2.35,75.91,22.17c24.52,24.52-2.35,51.39,22.17,75.91
			c24.52,24.52,51.39-2.35,75.91,22.17c24.52,24.52-2.35,51.39,22.17,75.91c24.52,24.52,51.39-2.35,75.91,22.17
			c24.52,24.52-2.35,51.39,22.17,75.91c24.52,24.52,51.39-2.35,75.91,22.17c24.52,24.52-2.35,51.39,22.17,75.91
			c24.52,24.52,51.39-2.35,75.91,22.17c24.52,24.52-2.35,51.39,22.17,75.91c24.52,24.52,51.39-2.35,75.91,22.17
			c24.52,24.52-2.35,51.39,22.17,75.91c24.52,24.52,51.39-2.35,75.91,22.17c24.52,24.52-2.35,51.39,22.17,75.91
			c24.52,24.52,51.39-2.35,75.91,22.17c24.52,24.52-2.35,51.39,22.17,75.91c24.52,24.52,51.39-2.35,75.91,22.17
			c24.52,24.52-2.35,51.39,22.17,75.91c24.52,24.52,51.39-2.35,75.91,22.17c24.52,24.52-2.35,51.39,22.18,75.92
			s51.4-2.35,75.92,22.18"/>
		<path class="st1" d="M1440.04-1853.41c24.52,24.52-2.35,51.39,22.17,75.91c24.52,24.52,51.39-2.35,75.91,22.17
			c24.52,24.52-2.35,51.39,22.17,75.91c24.52,24.52,51.39-2.35,75.91,22.17c24.52,24.52-2.35,51.39,22.17,75.91
			c24.52,24.52,51.39-2.35,75.91,22.17c24.52,24.52-2.35,51.39,22.17,75.91c24.52,24.52,51.39-2.35,75.91,22.17
			c24.52,24.52-2.35,51.39,22.17,75.91c24.52,24.52,51.39-2.35,75.91,22.17c24.52,24.52-2.35,51.39,22.17,75.91
			c24.52,24.52,51.39-2.35,75.91,22.17c24.52,24.52-2.35,51.39,22.17,75.91c24.52,24.52,51.39-2.35,75.91,22.17
			c24.52,24.52-2.35,51.39,22.17,75.91c24.52,24.52,51.39-2.35,75.91,22.17c24.52,24.52-2.35,51.39,22.17,75.91
			c24.52,24.52,51.39-2.35,75.91,22.17c24.52,24.52-2.35,51.39,22.17,75.91c24.52,24.52,51.39-2.35,75.91,22.17
			c24.52,24.52-2.35,51.39,22.17,75.91c24.52,24.52,51.39-2.35,75.91,22.17c24.52,24.52-2.35,51.4,22.18,75.92
			c24.53,24.52,51.4-2.35,75.92,22.18"/>
		<path class="st1" d="M1260.21-2078.41c24.52,24.52-2.35,51.39,22.17,75.91c24.52,24.52,51.39-2.35,75.91,22.17
			c24.52,24.52-2.35,51.39,22.17,75.91c24.52,24.52,51.39-2.35,75.91,22.17c24.52,24.52-2.35,51.39,22.17,75.91
			c24.52,24.52,51.39-2.35,75.91,22.17c24.52,24.52-2.35,51.39,22.17,75.91c24.52,24.52,51.39-2.35,75.91,22.17
			c24.52,24.52-2.35,51.39,22.17,75.91c24.52,24.52,51.39-2.35,75.91,22.17c24.52,24.52-2.35,51.39,22.17,75.91
			c24.52,24.52,51.39-2.35,75.91,22.17c24.52,24.52-2.35,51.39,22.17,75.91c24.52,24.52,51.39-2.35,75.91,22.17
			c24.52,24.52-2.35,51.39,22.17,75.91c24.52,24.52,51.39-2.35,75.91,22.17c24.52,24.52-2.35,51.39,22.17,75.91
			c24.52,24.52,51.39-2.35,75.91,22.17c24.52,24.52-2.35,51.39,22.17,75.91c24.52,24.52,51.39-2.35,75.91,22.17
			c24.52,24.52-2.35,51.39,22.17,75.91c24.52,24.52,51.39-2.35,75.91,22.17c24.52,24.52-2.35,51.4,22.18,75.92
			c24.53,24.52,51.4-2.35,75.92,22.18"/>
		<path class="st1" d="M1080.38-1853.41c24.52,24.52-2.35,51.39,22.17,75.91c24.52,24.52,51.39-2.35,75.91,22.17
			c24.52,24.52-2.35,51.39,22.17,75.91c24.52,24.52,51.39-2.35,75.91,22.17c24.52,24.52-2.35,51.39,22.17,75.91
			c24.52,24.52,51.39-2.35,75.91,22.17c24.52,24.52-2.35,51.39,22.17,75.91c24.52,24.52,51.39-2.35,75.91,22.17
			c24.52,24.52-2.35,51.39,22.17,75.91c24.52,24.52,51.39-2.35,75.91,22.17c24.52,24.52-2.35,51.39,22.17,75.91
			c24.52,24.52,51.39-2.35,75.91,22.17c24.52,24.52-2.35,51.39,22.17,75.91c24.52,24.52,51.39-2.35,75.91,22.17
			c24.52,24.52-2.35,51.39,22.17,75.91c24.52,24.52,51.39-2.35,75.91,22.17c24.52,24.52-2.35,51.39,22.17,75.91
			c24.52,24.52,51.39-2.35,75.91,22.17c24.52,24.52-2.35,51.39,22.17,75.91c24.52,24.52,51.39-2.35,75.91,22.17
			c24.52,24.52-2.35,51.39,22.17,75.91c24.52,24.52,51.39-2.35,75.91,22.17c24.52,24.52-2.35,51.4,22.18,75.92
			s51.4-2.35,75.92,22.18"/>
		<path class="st1" d="M900.56-2078.41c24.52,24.52-2.35,51.39,22.17,75.91c24.52,24.52,51.39-2.35,75.91,22.17
			c24.52,24.52-2.35,51.39,22.17,75.91c24.52,24.52,51.39-2.35,75.91,22.17c24.52,24.52-2.35,51.39,22.17,75.91
			c24.52,24.52,51.39-2.35,75.91,22.17c24.52,24.52-2.35,51.39,22.17,75.91c24.52,24.52,51.39-2.35,75.91,22.17
			c24.52,24.52-2.35,51.39,22.17,75.91c24.52,24.52,51.39-2.35,75.91,22.17c24.52,24.52-2.35,51.39,22.17,75.91
			c24.52,24.52,51.39-2.35,75.91,22.17c24.52,24.52-2.35,51.39,22.17,75.91c24.52,24.52,51.39-2.35,75.91,22.17
			c24.52,24.52-2.35,51.39,22.17,75.91c24.52,24.52,51.39-2.35,75.91,22.17c24.52,24.52-2.35,51.39,22.17,75.91
			c24.52,24.52,51.39-2.35,75.91,22.17c24.52,24.52-2.35,51.39,22.17,75.91c24.52,24.52,51.39-2.35,75.91,22.17
			c24.52,24.52-2.35,51.39,22.17,75.91c24.52,24.52,51.39-2.35,75.91,22.17c24.52,24.52-2.35,51.4,22.18,75.92
			c24.53,24.52,51.4-2.35,75.92,22.18"/>
		<path class="st1" d="M720.73-1853.41c24.52,24.52-2.35,51.39,22.17,75.91c24.52,24.52,51.39-2.35,75.91,22.17
			c24.52,24.52-2.35,51.39,22.17,75.91c24.52,24.52,51.39-2.35,75.91,22.17c24.52,24.52-2.35,51.39,22.17,75.91
			c24.52,24.52,51.39-2.35,75.91,22.17c24.52,24.52-2.35,51.39,22.17,75.91c24.52,24.52,51.39-2.35,75.91,22.17
			c24.52,24.52-2.35,51.39,22.17,75.91c24.52,24.52,51.39-2.35,75.91,22.17c24.52,24.52-2.35,51.39,22.17,75.91
			c24.52,24.52,51.39-2.35,75.91,22.17c24.52,24.52-2.35,51.39,22.17,75.91c24.52,24.52,51.39-2.35,75.91,22.17
			c24.52,24.52-2.35,51.39,22.17,75.91c24.52,24.52,51.39-2.35,75.91,22.17c24.52,24.52-2.35,51.39,22.17,75.91
			c24.52,24.52,51.39-2.35,75.91,22.17c24.52,24.52-2.35,51.39,22.17,75.91c24.52,24.52,51.39-2.35,75.91,22.17
			c24.52,24.52-2.35,51.39,22.17,75.91c24.52,24.52,51.39-2.35,75.91,22.17c24.52,24.52-2.35,51.4,22.18,75.92
			s51.4-2.35,75.92,22.18"/>
		<path class="st1" d="M540.9-2078.41c24.52,24.52-2.35,51.39,22.17,75.91c24.52,24.52,51.39-2.35,75.91,22.17
			c24.52,24.52-2.35,51.39,22.17,75.91c24.52,24.52,51.39-2.35,75.91,22.17c24.52,24.52-2.35,51.39,22.17,75.91
			c24.52,24.52,51.39-2.35,75.91,22.17c24.52,24.52-2.35,51.39,22.17,75.91c24.52,24.52,51.39-2.35,75.91,22.17
			c24.52,24.52-2.35,51.39,22.17,75.91c24.52,24.52,51.39-2.35,75.91,22.17c24.52,24.52-2.35,51.39,22.17,75.91
			c24.52,24.52,51.39-2.35,75.91,22.17c24.52,24.52-2.35,51.39,22.17,75.91c24.52,24.52,51.39-2.35,75.91,22.17
			c24.52,24.52-2.35,51.39,22.17,75.91c24.52,24.52,51.39-2.35,75.91,22.17c24.52,24.52-2.35,51.39,22.17,75.91
			c24.52,24.52,51.39-2.35,75.91,22.17c24.52,24.52-2.35,51.39,22.17,75.91c24.52,24.52,51.39-2.35,75.91,22.17
			c24.52,24.52-2.35,51.39,22.17,75.91c24.52,24.52,51.39-2.35,75.91,22.17c24.53,24.52-2.35,51.4,22.18,75.92
			c24.52,24.52,51.4-2.35,75.92,22.18"/>
		<path class="st1" d="M361.07-1853.41c24.52,24.52-2.35,51.39,22.17,75.91c24.52,24.52,51.39-2.35,75.91,22.17
			c24.52,24.52-2.35,51.39,22.17,75.91c24.52,24.52,51.39-2.35,75.91,22.17c24.52,24.52-2.35,51.39,22.17,75.91
			c24.52,24.52,51.39-2.35,75.91,22.17c24.52,24.52-2.35,51.39,22.17,75.91c24.52,24.52,51.39-2.35,75.91,22.17
			c24.52,24.52-2.35,51.39,22.17,75.91c24.52,24.52,51.39-2.35,75.91,22.17c24.52,24.52-2.35,51.39,22.17,75.91
			c24.52,24.52,51.39-2.35,75.91,22.17c24.52,24.52-2.35,51.39,22.17,75.91c24.52,24.52,51.39-2.35,75.91,22.17
			c24.52,24.52-2.35,51.39,22.17,75.91c24.52,24.52,51.39-2.35,75.91,22.17c24.52,24.52-2.35,51.39,22.17,75.91
			c24.52,24.52,51.39-2.35,75.91,22.17c24.52,24.52-2.35,51.39,22.17,75.91c24.52,24.52,51.39-2.35,75.91,22.17
			c24.52,24.52-2.35,51.39,22.17,75.91c24.52,24.52,51.39-2.35,75.91,22.17c24.53,24.52-2.35,51.4,22.18,75.92
			c24.53,24.52,51.4-2.35,75.92,22.18"/>
		<path class="st1" d="M181.24-2078.41c24.52,24.52-2.35,51.39,22.17,75.91c24.52,24.52,51.39-2.35,75.91,22.17
			c24.52,24.52-2.35,51.39,22.17,75.91c24.52,24.52,51.39-2.35,75.91,22.17c24.52,24.52-2.35,51.39,22.17,75.91
			c24.52,24.52,51.39-2.35,75.91,22.17c24.52,24.52-2.35,51.39,22.17,75.91c24.52,24.52,51.39-2.35,75.91,22.17
			c24.52,24.52-2.35,51.39,22.17,75.91c24.52,24.52,51.39-2.35,75.91,22.17c24.52,24.52-2.35,51.39,22.17,75.91
			c24.52,24.52,51.39-2.35,75.91,22.17c24.52,24.52-2.35,51.39,22.17,75.91c24.52,24.52,51.39-2.35,75.91,22.17
			c24.52,24.52-2.35,51.39,22.17,75.91c24.52,24.52,51.39-2.35,75.91,22.17c24.52,24.52-2.35,51.39,22.17,75.91
			c24.52,24.52,51.39-2.35,75.91,22.17c24.52,24.52-2.35,51.39,22.17,75.91c24.52,24.52,51.39-2.35,75.91,22.17
			c24.52,24.52-2.35,51.39,22.17,75.91c24.52,24.52,51.39-2.35,75.91,22.17c24.52,24.52-2.35,51.4,22.18,75.92
			c24.53,24.52,51.4-2.35,75.92,22.18"/>
		<path class="st1" d="M1.41-1853.41c24.52,24.52-2.35,51.39,22.17,75.91c24.52,24.52,51.39-2.35,75.91,22.17
			c24.52,24.52-2.35,51.39,22.17,75.91c24.52,24.52,51.39-2.35,75.91,22.17c24.52,24.52-2.35,51.39,22.17,75.91
			c24.52,24.52,51.39-2.35,75.91,22.17c24.52,24.52-2.35,51.39,22.17,75.91c24.52,24.52,51.39-2.35,75.91,22.17
			c24.52,24.52-2.35,51.39,22.17,75.91c24.52,24.52,51.39-2.35,75.91,22.17c24.52,24.52-2.35,51.39,22.17,75.91
			c24.52,24.52,51.39-2.35,75.91,22.17c24.52,24.52-2.35,51.39,22.17,75.91c24.52,24.52,51.39-2.35,75.91,22.17
			c24.52,24.52-2.35,51.39,22.17,75.91c24.52,24.52,51.39-2.35,75.91,22.17c24.52,24.52-2.35,51.39,22.17,75.91
			c24.52,24.52,51.39-2.35,75.91,22.17c24.52,24.52-2.35,51.39,22.17,75.91c24.52,24.52,51.39-2.35,75.91,22.17
			c24.52,24.52-2.35,51.39,22.17,75.91c24.52,24.52,51.39-2.35,75.91,22.17c24.52,24.52-2.35,51.4,22.18,75.92
			s51.4-2.35,75.92,22.18"/>
		<path class="st1" d="M1440.04-2303.41c24.52,24.52-2.35,51.39,22.17,75.91c24.52,24.52,51.39-2.35,75.91,22.17
			c24.52,24.52-2.35,51.39,22.17,75.91c24.52,24.52,51.39-2.35,75.91,22.17c24.52,24.52-2.35,51.39,22.17,75.91
			c24.52,24.52,51.39-2.35,75.91,22.17c24.52,24.52-2.35,51.39,22.17,75.91c24.52,24.52,51.39-2.35,75.91,22.17
			c24.52,24.52-2.35,51.39,22.17,75.91c24.52,24.52,51.39-2.35,75.91,22.17c24.52,24.52-2.35,51.39,22.17,75.91
			c24.52,24.52,51.39-2.35,75.91,22.17c24.52,24.52-2.35,51.39,22.17,75.91c24.52,24.52,51.39-2.35,75.91,22.17
			c24.52,24.52-2.35,51.39,22.17,75.91c24.52,24.52,51.39-2.35,75.91,22.17c24.52,24.52-2.35,51.39,22.17,75.91
			c24.52,24.52,51.39-2.35,75.91,22.17c24.52,24.52-2.35,51.39,22.17,75.91c24.52,24.52,51.39-2.35,75.91,22.17
			c24.52,24.52-2.35,51.39,22.17,75.91c24.52,24.52,51.39-2.35,75.91,22.17c24.52,24.53-2.35,51.4,22.18,75.92
			c24.53,24.53,51.4-2.35,75.92,22.18"/>
		<path class="st1" d="M1260.21-2528.41c24.52,24.52-2.35,51.39,22.17,75.91c24.52,24.52,51.39-2.35,75.91,22.17
			c24.52,24.52-2.35,51.39,22.17,75.91c24.52,24.52,51.39-2.35,75.91,22.17c24.52,24.52-2.35,51.39,22.17,75.91
			c24.52,24.52,51.39-2.35,75.91,22.17c24.52,24.52-2.35,51.39,22.17,75.91c24.52,24.52,51.39-2.35,75.91,22.17
			c24.52,24.52-2.35,51.39,22.17,75.91c24.52,24.52,51.39-2.35,75.91,22.17c24.52,24.52-2.35,51.39,22.17,75.91
			c24.52,24.52,51.39-2.35,75.91,22.17c24.52,24.52-2.35,51.39,22.17,75.91c24.52,24.52,51.39-2.35,75.91,22.17
			c24.52,24.52-2.35,51.39,22.17,75.91c24.52,24.52,51.39-2.35,75.91,22.17c24.52,24.52-2.35,51.39,22.17,75.91
			c24.52,24.52,51.39-2.35,75.91,22.17c24.52,24.52-2.35,51.39,22.17,75.91c24.52,24.52,51.39-2.35,75.91,22.17
			c24.52,24.52-2.35,51.39,22.17,75.91c24.52,24.52,51.39-2.35,75.91,22.17c24.52,24.53-2.35,51.4,22.18,75.92
			c24.53,24.53,51.4-2.35,75.92,22.18"/>
		<path class="st1" d="M1080.38-2303.41c24.52,24.52-2.35,51.39,22.17,75.91c24.52,24.52,51.39-2.35,75.91,22.17
			c24.52,24.52-2.35,51.39,22.17,75.91c24.52,24.52,51.39-2.35,75.91,22.17c24.52,24.52-2.35,51.39,22.17,75.91
			c24.52,24.52,51.39-2.35,75.91,22.17c24.52,24.52-2.35,51.39,22.17,75.91c24.52,24.52,51.39-2.35,75.91,22.17
			c24.52,24.52-2.35,51.39,22.17,75.91c24.52,24.52,51.39-2.35,75.91,22.17c24.52,24.52-2.35,51.39,22.17,75.91
			c24.52,24.52,51.39-2.35,75.91,22.17c24.52,24.52-2.35,51.39,22.17,75.91c24.52,24.52,51.39-2.35,75.91,22.17
			c24.52,24.52-2.35,51.39,22.17,75.91c24.52,24.52,51.39-2.35,75.91,22.17c24.52,24.52-2.35,51.39,22.17,75.91
			c24.52,24.52,51.39-2.35,75.91,22.17c24.52,24.52-2.35,51.39,22.17,75.91c24.52,24.52,51.39-2.35,75.91,22.17
			c24.52,24.52-2.35,51.39,22.17,75.91c24.52,24.52,51.39-2.35,75.91,22.17c24.52,24.53-2.35,51.4,22.18,75.92
			c24.52,24.53,51.4-2.35,75.92,22.18"/>
		<path class="st1" d="M900.56-2528.41c24.52,24.52-2.35,51.39,22.17,75.91c24.52,24.52,51.39-2.35,75.91,22.17
			c24.52,24.52-2.35,51.39,22.17,75.91c24.52,24.52,51.39-2.35,75.91,22.17c24.52,24.52-2.35,51.39,22.17,75.91
			c24.52,24.52,51.39-2.35,75.91,22.17c24.52,24.52-2.35,51.39,22.17,75.91c24.52,24.52,51.39-2.35,75.91,22.17
			c24.52,24.52-2.35,51.39,22.17,75.91c24.52,24.52,51.39-2.35,75.91,22.17c24.52,24.52-2.35,51.39,22.17,75.91
			c24.52,24.52,51.39-2.35,75.91,22.17c24.52,24.52-2.35,51.39,22.17,75.91c24.52,24.52,51.39-2.35,75.91,22.17
			c24.52,24.52-2.35,51.39,22.17,75.91c24.52,24.52,51.39-2.35,75.91,22.17c24.52,24.52-2.35,51.39,22.17,75.91
			c24.52,24.52,51.39-2.35,75.91,22.17c24.52,24.52-2.35,51.39,22.17,75.91c24.52,24.52,51.39-2.35,75.91,22.17
			c24.52,24.52-2.35,51.39,22.17,75.91c24.52,24.52,51.39-2.35,75.91,22.17c24.52,24.53-2.35,51.4,22.18,75.92
			c24.53,24.53,51.4-2.35,75.92,22.18"/>
		<path class="st1" d="M720.73-2303.41c24.52,24.52-2.35,51.39,22.17,75.91c24.52,24.52,51.39-2.35,75.91,22.17
			c24.52,24.52-2.35,51.39,22.17,75.91c24.52,24.52,51.39-2.35,75.91,22.17c24.52,24.52-2.35,51.39,22.17,75.91
			c24.52,24.52,51.39-2.35,75.91,22.17c24.52,24.52-2.35,51.39,22.17,75.91c24.52,24.52,51.39-2.35,75.91,22.17
			c24.52,24.52-2.35,51.39,22.17,75.91c24.52,24.52,51.39-2.35,75.91,22.17c24.52,24.52-2.35,51.39,22.17,75.91
			c24.52,24.52,51.39-2.35,75.91,22.17c24.52,24.52-2.35,51.39,22.17,75.91c24.52,24.52,51.39-2.35,75.91,22.17
			c24.52,24.52-2.35,51.39,22.17,75.91c24.52,24.52,51.39-2.35,75.91,22.17c24.52,24.52-2.35,51.39,22.17,75.91
			c24.52,24.52,51.39-2.35,75.91,22.17c24.52,24.52-2.35,51.39,22.17,75.91c24.52,24.52,51.39-2.35,75.91,22.17
			c24.52,24.52-2.35,51.39,22.17,75.91c24.52,24.52,51.39-2.35,75.91,22.17c24.52,24.53-2.35,51.4,22.18,75.92
			c24.52,24.53,51.4-2.35,75.92,22.18"/>
		<path class="st1" d="M540.9-2528.41c24.52,24.52-2.35,51.39,22.17,75.91c24.52,24.52,51.39-2.35,75.91,22.17
			c24.52,24.52-2.35,51.39,22.17,75.91c24.52,24.52,51.39-2.35,75.91,22.17c24.52,24.52-2.35,51.39,22.17,75.91
			c24.52,24.52,51.39-2.35,75.91,22.17c24.52,24.52-2.35,51.39,22.17,75.91c24.52,24.52,51.39-2.35,75.91,22.17
			c24.52,24.52-2.35,51.39,22.17,75.91c24.52,24.52,51.39-2.35,75.91,22.17c24.52,24.52-2.35,51.39,22.17,75.91
			c24.52,24.52,51.39-2.35,75.91,22.17c24.52,24.52-2.35,51.39,22.17,75.91c24.52,24.52,51.39-2.35,75.91,22.17
			c24.52,24.52-2.35,51.39,22.17,75.91c24.52,24.52,51.39-2.35,75.91,22.17c24.52,24.52-2.35,51.39,22.17,75.91
			c24.52,24.52,51.39-2.35,75.91,22.17c24.52,24.52-2.35,51.39,22.17,75.91c24.52,24.52,51.39-2.35,75.91,22.17
			c24.52,24.52-2.35,51.39,22.17,75.91c24.52,24.52,51.39-2.35,75.91,22.17c24.53,24.53-2.35,51.4,22.18,75.92
			c24.52,24.53,51.4-2.35,75.92,22.18"/>
		<path class="st1" d="M361.07-2303.41c24.52,24.52-2.35,51.39,22.17,75.91c24.52,24.52,51.39-2.35,75.91,22.17
			c24.52,24.52-2.35,51.39,22.17,75.91c24.52,24.52,51.39-2.35,75.91,22.17c24.52,24.52-2.35,51.39,22.17,75.91
			c24.52,24.52,51.39-2.35,75.91,22.17c24.52,24.52-2.35,51.39,22.17,75.91c24.52,24.52,51.39-2.35,75.91,22.17
			c24.52,24.52-2.35,51.39,22.17,75.91c24.52,24.52,51.39-2.35,75.91,22.17c24.52,24.52-2.35,51.39,22.17,75.91
			c24.52,24.52,51.39-2.35,75.91,22.17c24.52,24.52-2.35,51.39,22.17,75.91c24.52,24.52,51.39-2.35,75.91,22.17
			c24.52,24.52-2.35,51.39,22.17,75.91c24.52,24.52,51.39-2.35,75.91,22.17c24.52,24.52-2.35,51.39,22.17,75.91
			c24.52,24.52,51.39-2.35,75.91,22.17c24.52,24.52-2.35,51.39,22.17,75.91c24.52,24.52,51.39-2.35,75.91,22.17
			c24.52,24.52-2.35,51.39,22.17,75.91c24.52,24.52,51.39-2.35,75.91,22.17c24.53,24.53-2.35,51.4,22.18,75.92
			c24.53,24.53,51.4-2.35,75.92,22.18"/>
		<path class="st1" d="M181.24-2528.41c24.52,24.52-2.35,51.39,22.17,75.91c24.52,24.52,51.39-2.35,75.91,22.17
			c24.52,24.52-2.35,51.39,22.17,75.91c24.52,24.52,51.39-2.35,75.91,22.17c24.52,24.52-2.35,51.39,22.17,75.91
			c24.52,24.52,51.39-2.35,75.91,22.17c24.52,24.52-2.35,51.39,22.17,75.91c24.52,24.52,51.39-2.35,75.91,22.17
			c24.52,24.52-2.35,51.39,22.17,75.91c24.52,24.52,51.39-2.35,75.91,22.17c24.52,24.52-2.35,51.39,22.17,75.91
			c24.52,24.52,51.39-2.35,75.91,22.17c24.52,24.52-2.35,51.39,22.17,75.91c24.52,24.52,51.39-2.35,75.91,22.17
			c24.52,24.52-2.35,51.39,22.17,75.91c24.52,24.52,51.39-2.35,75.91,22.17c24.52,24.52-2.35,51.39,22.17,75.91
			c24.52,24.52,51.39-2.35,75.91,22.17c24.52,24.52-2.35,51.39,22.17,75.91c24.52,24.52,51.39-2.35,75.91,22.17
			c24.52,24.52-2.35,51.39,22.17,75.91c24.52,24.52,51.39-2.35,75.91,22.17c24.52,24.53-2.35,51.4,22.18,75.92
			c24.53,24.53,51.4-2.35,75.92,22.18"/>
		<path class="st1" d="M1.41-2303.41c24.52,24.52-2.35,51.39,22.17,75.91c24.52,24.52,51.39-2.35,75.91,22.17
			c24.52,24.52-2.35,51.39,22.17,75.91c24.52,24.52,51.39-2.35,75.91,22.17c24.52,24.52-2.35,51.39,22.17,75.91
			c24.52,24.52,51.39-2.35,75.91,22.17c24.52,24.52-2.35,51.39,22.17,75.91c24.52,24.52,51.39-2.35,75.91,22.17
			c24.52,24.52-2.35,51.39,22.17,75.91c24.52,24.52,51.39-2.35,75.91,22.17c24.52,24.52-2.35,51.39,22.17,75.91
			c24.52,24.52,51.39-2.35,75.91,22.17c24.52,24.52-2.35,51.39,22.17,75.91c24.52,24.52,51.39-2.35,75.91,22.17
			c24.52,24.52-2.35,51.39,22.17,75.91c24.52,24.52,51.39-2.35,75.91,22.17c24.52,24.52-2.35,51.39,22.17,75.91
			c24.52,24.52,51.39-2.35,75.91,22.17c24.52,24.52-2.35,51.39,22.17,75.91c24.52,24.52,51.39-2.35,75.91,22.17
			c24.52,24.52-2.35,51.39,22.17,75.91c24.52,24.52,51.39-2.35,75.91,22.17c24.52,24.53-2.35,51.4,22.18,75.92
			c24.52,24.53,51.4-2.35,75.92,22.18"/>
	</g>
</pattern>
<rect class="st2" width="1920" height="1080"/>
</svg>
