<?xml version="1.0" encoding="utf-8"?>
<!-- Generator: Adobe Illustrator 25.4.1, SVG Export Plug-In . SVG Version: 6.00 Build 0)  -->
<svg version="1.1" id="Layer_1" xmlns="http://www.w3.org/2000/svg" xmlns:xlink="http://www.w3.org/1999/xlink" x="0px" y="0px"
	 viewBox="0 0 336.9 234.8" style="enable-background:new 0 0 336.9 234.8;" xml:space="preserve">
<style type="text/css">
	.st0{fill:#FFFFFF;}
</style>
<path class="st0" d="M335.5,132.8c-1.3-1.2-2.2-1.6-2.7-1.9c-1.9-1.2-3.8-0.6-5.7,0.4c-4.3,2.3-8.6,4.8-13.2,6.4
	c-6,1.7-11.7-1-13.3-6c-0.4-1.2,0.2-3-0.2-4.8c-0.2-0.6-1.5-2.5-1.9-2.6c-2.6-0.6-2.8-2.7-0.9-3.6c9.9-4.8,9.8-10,7.2-10.2
	c-3-0.2-5.3,2.1-10.2,3c-1.9,0.4-3.2-1-2.7-2.8c0.7-2.4,0.3-3.9-2.4-4.3c-0.8-0.1-1.7-0.4-2.5-0.7c-3-1-4.3-2.8-3.6-5.8
	c1.1-4.4,2.6-8.7,4-13c1.1-3.2,2-6.2,1.1-9.7c-1.1-4.1-1.4-8.2-0.6-12.4c0.3-1.6-0.2-3.4-1.4-4.4c-2.5-2-2.4-5.2-2-8.4
	c1.5-12.8,9.7-22.4,17.7-27.9c3-2,2.4-6.6-1-7.8C260.6,1.1,203.7-4.6,143.4,4C87.1,12.1,37,31.5,2.2,55.2c-4.2,2.9-2,9.1,3,8.2
	c0,0,6.3-0.5,11-3.9c2.8-1.9,3.1-1,3.4-0.1c2.1,5.8,10.6,15.8,1.6,19.2c-4,1.5-1,3.9,5.4,8.7c3.9,2.9,6,8.2,9,15.7
	c0.9,2.3,2.1,6.8,3.5,8.9c2.4,3.4-1.2,4.8-2.6,7.6c-0.9,1.9,0.1,4.2,1.3,5.8c0,0,11.6,18.1,11.7,20.4c0.1,2.4-0.8,4.9-4.9,5.1
	c-2.4,0.1-3.2,1.5-3.3,5.8c-0.1,3.3-13.8-2.5-10.9,4.4c3.3,7.8,9.6,4.3,10.6,6c0.2,0.4,0.3,1.9-0.9,3.5c-1.3,1.8-2.1,5.1-2,7.3
	c0.2,4.2,0.2,7.7-3.7,8.3c-3.6,0.5-6.6,1.4-9.5,2.3c-4.2,1.3-4.2,7.3,0,8.5c22.7,6.9,50.1,11.9,79.3,13.5c0.3,0,0.6,0.1,0.9,0.1
	c2.1,0.6,9.1,3.8,1,17.5c-2.2,3.8,1.6,8.2,5.6,6.4l59.1-26.1c0.3-0.1,0.7-0.2,1-0.3c8.2-1.5,111.9-20.7,163.6-68.7
	C337.4,137.6,337.4,134.6,335.5,132.8z M59.2,122.1c0,2.4-1.4,3.9-3.7,3.9c-2.3,0-3.6-1.5-3.6-3.9V89.5c0-2.5,1.4-4,3.6-4
	c2.4,0,3.7,1.5,3.7,4V122.1z M108.8,122.1c0,2.4-1.4,3.9-3.7,3.9c-2.3,0-3.6-1.5-3.6-3.9v-17.9c0-8.2-4-12.5-11.8-12.5
	c-7.8,0-12.7,5.3-12.7,14v16.5c0,2.4-1.4,3.9-3.7,3.9c-2.3,0-3.6-1.5-3.6-3.9V89.4c0-2.4,1.4-3.9,3.6-3.9c2.4,0,3.7,1.5,3.7,3.9v2
	h0.2c3-4,7.9-6.4,14.3-6.4c11.3,0,17.4,6.5,17.4,18.4L108.8,122.1L108.8,122.1z M157.4,122.1c0,2.4-1.4,3.9-3.7,3.9
	c-2.3,0-3.6-1.5-3.6-3.9v-17.9c0-8.2-4-12.5-11.8-12.5c-7.8,0-12.7,5.3-12.7,14v16.5c0,2.4-1.4,3.9-3.7,3.9c-2.3,0-3.6-1.5-3.6-3.9
	V89.4c0-2.4,1.4-3.9,3.6-3.9c2.4,0,3.7,1.5,3.7,3.9v2h0.2c3-4,7.9-6.4,14.3-6.4c11.3,0,17.4,6.5,17.4,18.4L157.4,122.1L157.4,122.1z
	 M186.4,126.5c-12.7,0-21.4-8.4-21.4-20.7S173.7,85,186.4,85s21.5,8.4,21.5,20.7C207.9,118,199.2,126.5,186.4,126.5z M278.6,122.1
	c0,2.4-1.3,3.9-3.6,3.9c-2.4,0-3.7-1.5-3.7-3.9v-18.7c0-7.7-3.3-11.7-9.5-11.7c-6.5,0-10.4,5-10.4,13.1v17.4c0,2.4-1.4,3.9-3.7,3.9
	c-2.2,0-3.6-1.5-3.6-3.9v-18.7c0-7.7-3.3-11.7-9.6-11.7c-6.5,0-10.4,5-10.4,13.1v17.4c0,2.4-1.4,3.9-3.7,3.9c-2.3,0-3.6-1.5-3.6-3.9
	V89.5c0-2.5,1.4-4,3.6-4c2.4,0,3.7,1.5,3.7,4v1h0.2c2.6-3.5,6.8-5.5,12-5.5c6,0,10.3,2.4,12.6,6.9h0.2c2.8-4.4,7.6-6.9,14.2-6.9
	c10.4,0,15.5,6.1,15.5,17.6L278.6,122.1L278.6,122.1z"/>
</svg>
